<svg width="100" height="75" viewBox="0 0 100 75" fill="none" xmlns="http://www.w3.org/2000/svg">
<path fill-rule="evenodd" clip-rule="evenodd" d="M66.8069 40.3847L61.4913 44.3756C54.0721 39.6273 47.1656 34.4462 40.8365 28.8806L46.1521 24.894C48.8897 22.8402 50.4277 20.055 50.4277 17.1509C50.4277 14.2467 48.8897 11.4615 46.1521 9.40771L37.8983 3.20882C36.5422 2.19152 34.9322 1.38453 33.1602 0.833956C31.3881 0.283381 29.4889 0 27.5708 0C25.6528 0 23.7535 0.283381 21.9815 0.833956C20.2095 1.38453 18.5995 2.19152 17.2434 3.20882L0.852663 15.5015C0.456865 15.7991 0.183622 16.1759 0.0655451 16.5868C-0.052532 16.9977 -0.0104553 17.4255 0.186753 17.8189C13.762 45.0941 39.0957 64.2252 76.229 74.8575C76.7552 75.0073 77.3279 75.0398 77.8781 74.9512C78.4284 74.8626 78.9328 74.6566 79.3307 74.3581L95.7214 62.0699C97.0779 61.0528 98.1539 59.8453 98.888 58.5164C99.6221 57.1874 100 55.763 100 54.3245C100 52.886 99.6221 51.4616 98.888 50.1327C98.1539 48.8037 97.0779 47.5962 95.7214 46.5792L87.4618 40.3847C86.1057 39.3674 84.4957 38.5604 82.7237 38.0098C80.9517 37.4592 79.0524 37.1758 77.1344 37.1758C75.2163 37.1758 73.317 37.4592 71.545 38.0098C69.773 38.5604 68.163 39.3674 66.8069 40.3847ZM91.5916 49.6764C92.4058 50.2867 93.0518 51.0113 93.4924 51.8088C93.9331 52.6064 94.1599 53.4612 94.1599 54.3245C94.1599 55.1878 93.9331 56.0427 93.4924 56.8402C93.0518 57.6377 92.4058 58.3623 91.5916 58.9726L76.5502 70.2533C42.548 60.151 19.2411 42.5663 6.32013 17.5955L21.3732 6.31046C22.1869 5.69981 23.1531 5.2154 24.2165 4.8849C25.2799 4.5544 26.4197 4.38429 27.5708 4.38429C28.7219 4.38429 29.8618 4.5544 30.9252 4.8849C31.9886 5.2154 32.9548 5.69981 33.7685 6.31046L42.0281 12.505C43.6707 13.7373 44.5935 15.4084 44.5935 17.1509C44.5935 18.8933 43.6707 20.5644 42.0281 21.7967L34.8199 27.2027C34.3044 27.5883 33.9994 28.1043 33.9649 28.6497C33.9303 29.1951 34.1686 29.7305 34.633 30.151C42.2165 37.0189 50.6393 43.3403 59.7915 49.0325C60.3515 49.3813 61.065 49.5608 61.7922 49.5357C62.5194 49.5105 63.2079 49.2826 63.7227 48.8967L70.9426 43.4819C72.5855 42.2513 74.8124 41.5601 77.1344 41.5601C79.4563 41.5601 81.6833 42.2513 83.3262 43.4819L91.5916 49.6764Z" fill="#0A737B"/>
</svg>
