<svg width="100" height="75" viewBox="0 0 100 75" fill="none" xmlns="http://www.w3.org/2000/svg">
<path fill-rule="evenodd" clip-rule="evenodd" d="M85.4333 10.9006C80.8194 7.4345 75.3302 4.68631 69.2837 2.8152C63.2372 0.944098 56.7536 -0.0127331 50.2083 0.000127948C22.7708 0.000127948 0.416666 16.6744 0.416666 37.1594C0.395871 43.6822 2.68732 50.0929 7.05833 55.7406L0 75L26.4 69.8235C33.7 72.7925 41.8789 74.3507 50.1917 74.3561H50.2125C77.6542 74.3561 99.9833 57.6849 100 37.1843C100 27.2575 94.825 17.9249 85.4333 10.8975V10.9006ZM50.2083 68.0752H50.1917C42.7815 68.0752 35.5073 66.5893 29.1292 63.7729L27.6167 63.104L11.9417 66.1683L16.125 54.7669L15.15 53.6004C11.0025 48.6763 8.80673 42.9762 8.81667 37.1594C8.81667 20.1368 27.3875 6.28408 50.225 6.28408C55.6601 6.27394 61.0438 7.06882 66.0646 8.62272C71.0854 10.1766 75.6435 12.4586 79.475 15.3367C83.3253 18.2009 86.3774 21.6064 88.455 25.3563C90.5325 29.1062 91.5944 33.1263 91.5792 37.1843C91.5792 54.2225 73.0125 68.0752 50.2083 68.0752ZM72.8958 44.9366C71.6583 44.4762 65.5375 42.2301 64.4 41.9253C63.2625 41.608 62.4292 41.4618 61.6 42.3857C60.7667 43.3189 58.3917 45.4126 57.6625 46.0316C56.9458 46.6382 56.2125 46.7253 54.975 46.2618C53.725 45.8014 49.7208 44.8153 44.9667 41.6453C41.2708 39.1877 38.7667 36.1391 38.05 35.2151C37.3167 34.2819 37.9667 33.7841 38.5875 33.3175C39.1542 32.9069 39.8375 32.238 40.4583 31.6905C41.075 31.1586 41.2917 30.7697 41.7083 30.1475C42.1167 29.5285 41.9083 28.981 41.5958 28.5205C41.2875 28.0601 38.8 23.4778 37.7583 21.6175C36.7458 19.807 35.7208 20.0621 34.9583 20.0279C34.2417 20.003 33.4125 20.003 32.5833 20.003C31.75 20.003 30.4 20.2332 29.2583 21.1696C28.1208 22.0935 24.9125 24.3427 24.9125 28.9094C24.9125 33.4793 29.3708 37.8998 29.9958 38.522C30.6125 39.1286 38.7667 48.5079 51.2458 52.5333C53.5582 53.28 55.9227 53.9332 58.3292 54.4901C61.3083 55.1931 64.025 55.0967 66.175 54.8634C68.5667 54.5989 73.5292 52.6173 74.5708 50.4428C75.6 48.2808 75.6 46.4205 75.2875 46.0316C74.9792 45.6428 74.15 45.4094 72.8958 44.9366Z" fill="#0A737B"/>
</svg>
