<svg width="255" height="80" viewBox="0 0 255 80" fill="none" xmlns="http://www.w3.org/2000/svg">
<path d="M12.0682 62H1.52273L17.5909 15.4545H30.2727L46.3182 62H35.7727L24.1136 26.0909H23.75L12.0682 62ZM11.4091 43.7045H36.3182V51.3864H11.4091V43.7045Z" fill="#055192"/>
<path d="M70.2658 46.6878H66.7203C66.5839 45.9302 66.3302 45.2635 65.9589 44.6878C65.5877 44.112 65.1332 43.6234 64.5953 43.2219C64.0574 42.8204 63.4552 42.5173 62.7885 42.3128C62.1294 42.1082 61.4286 42.006 60.6862 42.006C59.3453 42.006 58.1445 42.3431 57.0839 43.0173C56.0309 43.6916 55.1976 44.6802 54.5839 45.9832C53.9779 47.2863 53.6748 48.8772 53.6748 50.756C53.6748 52.6499 53.9779 54.2484 54.5839 55.5514C55.1976 56.8545 56.0347 57.8393 57.0953 58.506C58.1559 59.1726 59.3491 59.506 60.6748 59.506C61.4097 59.506 62.1067 59.4075 62.7658 59.2105C63.4324 59.006 64.0347 58.7067 64.5726 58.3128C65.1105 57.9188 65.565 57.4378 65.9362 56.8696C66.315 56.2938 66.5764 55.6348 66.7203 54.8923L70.2658 54.9037C70.0764 56.0476 69.7089 57.1007 69.1635 58.0628C68.6256 59.0173 67.9324 59.8431 67.0839 60.5401C66.243 61.2295 65.2809 61.7635 64.1976 62.1423C63.1142 62.5211 61.9324 62.7105 60.6521 62.7105C58.637 62.7105 56.8415 62.2332 55.2658 61.2787C53.69 60.3166 52.4476 58.9416 51.5385 57.1537C50.637 55.3658 50.1862 53.2332 50.1862 50.756C50.1862 48.2711 50.6408 46.1385 51.5498 44.3582C52.4589 42.5704 53.7014 41.1992 55.2771 40.2446C56.8529 39.2825 58.6445 38.8014 60.6521 38.8014C61.887 38.8014 63.0385 38.9795 64.1067 39.3355C65.1824 39.684 66.1483 40.1992 67.0044 40.881C67.8605 41.5552 68.5688 42.381 69.1294 43.3582C69.69 44.3279 70.0688 45.4378 70.2658 46.6878ZM92.6334 39.1196H96.1561V54.4264C96.1561 56.0552 95.7735 57.4984 95.0084 58.756C94.2432 60.006 93.1675 60.9908 91.7811 61.7105C90.3947 62.4226 88.7697 62.7787 86.9061 62.7787C85.05 62.7787 83.4288 62.4226 82.0425 61.7105C80.6561 60.9908 79.5803 60.006 78.8152 58.756C78.05 57.4984 77.6675 56.0552 77.6675 54.4264V39.1196H81.1788V54.1423C81.1788 55.1954 81.4099 56.131 81.872 56.9492C82.3417 57.7673 83.0046 58.4113 83.8606 58.881C84.7167 59.3431 85.7319 59.5742 86.9061 59.5742C88.0879 59.5742 89.1069 59.3431 89.9629 58.881C90.8266 58.4113 91.4856 57.7673 91.9402 56.9492C92.4023 56.131 92.6334 55.1954 92.6334 54.1423V39.1196ZM117.154 45.2332C117.033 44.1575 116.533 43.3242 115.654 42.7332C114.776 42.1348 113.67 41.8355 112.336 41.8355C111.382 41.8355 110.556 41.987 109.859 42.2901C109.162 42.5855 108.62 42.9946 108.234 43.5173C107.855 44.0325 107.666 44.6196 107.666 45.2787C107.666 45.8317 107.795 46.309 108.052 46.7105C108.317 47.112 108.662 47.4492 109.086 47.7219C109.518 47.987 109.98 48.2105 110.473 48.3923C110.965 48.5666 111.438 48.7105 111.893 48.8242L114.166 49.4151C114.908 49.5969 115.67 49.8431 116.45 50.1537C117.23 50.4643 117.954 50.8734 118.62 51.381C119.287 51.8885 119.825 52.5173 120.234 53.2673C120.651 54.0173 120.859 54.9151 120.859 55.9605C120.859 57.2787 120.518 58.4492 119.836 59.4719C119.162 60.4946 118.181 61.3014 116.893 61.8923C115.613 62.4832 114.063 62.7787 112.245 62.7787C110.503 62.7787 108.995 62.5022 107.723 61.9492C106.45 61.3961 105.454 60.612 104.734 59.5969C104.014 58.5742 103.617 57.362 103.541 55.9605H107.063C107.132 56.8014 107.404 57.5022 107.882 58.0628C108.367 58.6158 108.984 59.0287 109.734 59.3014C110.492 59.5666 111.321 59.6992 112.223 59.6992C113.215 59.6992 114.098 59.5438 114.87 59.2332C115.651 58.9151 116.264 58.4757 116.711 57.9151C117.158 57.3469 117.382 56.684 117.382 55.9264C117.382 55.237 117.185 54.6726 116.791 54.2332C116.404 53.7938 115.878 53.4302 115.211 53.1423C114.552 52.8545 113.806 52.6007 112.973 52.381L110.223 51.631C108.359 51.1234 106.882 50.3772 105.791 49.3923C104.707 48.4075 104.166 47.1045 104.166 45.4832C104.166 44.1423 104.529 42.9719 105.257 41.9719C105.984 40.9719 106.969 40.1954 108.211 39.6423C109.454 39.0817 110.855 38.8014 112.416 38.8014C113.992 38.8014 115.382 39.0779 116.586 39.631C117.798 40.184 118.753 40.9454 119.45 41.9151C120.147 42.8772 120.51 43.9832 120.541 45.2332H117.154ZM128.255 39.1196H132.516L139.925 57.2105H140.198L147.607 39.1196H151.869V62.3923H148.528V45.5514H148.312L141.448 62.3582H138.675L131.812 45.5401H131.596V62.3923H128.255V39.1196ZM162.14 62.3923H158.412L166.787 39.1196H170.844L179.219 62.3923H175.492L168.912 43.3469H168.731L162.14 62.3923ZM162.765 53.2787H174.856V56.2332H162.765V53.2787ZM204.564 39.1196V62.3923H201.337L189.507 45.3242H189.291V62.3923H185.78V39.1196H189.03L200.871 56.2105H201.087V39.1196H204.564ZM216.398 39.1196V62.3923H212.886V39.1196H216.398ZM226.677 62.3923H222.95L231.325 39.1196H235.382L243.757 62.3923H240.029L233.45 43.3469H233.268L226.677 62.3923ZM227.302 53.2787H239.393V56.2332H227.302V53.2787Z" fill="#055192"/>
<path d="M63.3233 66.6031V76.7849H61.4789V66.6031H63.3233ZM75.0879 66.6031V76.7849H73.4472L68.6496 69.8495H68.5651V76.7849H66.7207V66.6031H68.3712L73.1638 73.5434H73.2533V66.6031H75.0879ZM85.3186 69.8545C85.2358 69.586 85.1214 69.3458 84.9756 69.1336C84.8331 68.9182 84.6607 68.7342 84.4586 68.5818C84.2597 68.4293 84.031 68.315 83.7725 68.2387C83.514 68.1592 83.2322 68.1194 82.9273 68.1194C82.3804 68.1194 81.8932 68.257 81.4657 68.5321C81.0381 68.8072 80.7017 69.2115 80.4564 69.7451C80.2145 70.2754 80.0935 70.9217 80.0935 71.6841C80.0935 72.453 80.2145 73.1043 80.4564 73.6379C80.6984 74.1715 81.0348 74.5775 81.4657 74.8559C81.8965 75.131 82.397 75.2686 82.9671 75.2686C83.4841 75.2686 83.9316 75.1691 84.3094 74.9703C84.6906 74.7714 84.9839 74.4897 85.1894 74.1251C85.3949 73.7572 85.4976 73.3263 85.4976 72.8325L85.9152 72.8971H83.151V71.4554H87.2824V72.6784C87.2824 73.5501 87.0968 74.3041 86.7256 74.9405C86.3544 75.5768 85.844 76.0673 85.1944 76.412C84.5447 76.7534 83.799 76.9241 82.9571 76.9241C82.0192 76.9241 81.1955 76.7137 80.4863 76.2927C79.7803 75.8685 79.2284 75.2669 78.8307 74.488C78.4363 73.7058 78.2391 72.7778 78.2391 71.7039C78.2391 70.882 78.3551 70.1478 78.5871 69.5015C78.8224 68.8552 79.1506 68.3067 79.5715 67.8559C79.9924 67.4019 80.4863 67.0572 81.053 66.8218C81.6198 66.5832 82.2363 66.4639 82.9024 66.4639C83.4659 66.4639 83.9912 66.5467 84.4784 66.7125C84.9657 66.8749 85.3982 67.1069 85.776 67.4085C86.1572 67.7101 86.4704 68.0681 86.7157 68.4824C86.9609 68.8967 87.1217 69.354 87.1979 69.8545H85.3186ZM90.466 76.7849V66.6031H97.0881V68.1493H92.3104V70.9135H96.7451V72.4596H92.3104V75.2387H97.1279V76.7849H90.466ZM108.737 66.6031V76.7849H107.096L102.299 69.8495H102.214V76.7849H100.37V66.6031H102.02L106.813 73.5434H106.903V66.6031H108.737ZM113.991 66.6031V76.7849H112.147V66.6031H113.991ZM117.389 76.7849V66.6031H124.011V68.1493H119.233V70.9135H123.668V72.4596H119.233V75.2387H124.051V76.7849H117.389ZM127.293 76.7849V66.6031H131.111C131.893 66.6031 132.549 66.739 133.079 67.0108C133.613 67.2825 134.016 67.6637 134.288 68.1542C134.563 68.6414 134.7 69.2099 134.7 69.8595C134.7 70.5124 134.561 71.0792 134.283 71.5598C134.008 72.037 133.601 72.4066 133.065 72.6684C132.528 72.927 131.868 73.0562 131.086 73.0562H128.366V71.525H130.837C131.295 71.525 131.669 71.462 131.961 71.336C132.253 71.2068 132.468 71.0195 132.607 70.7743C132.75 70.5257 132.821 70.2208 132.821 69.8595C132.821 69.4982 132.75 69.19 132.607 68.9348C132.465 68.6762 132.248 68.4807 131.956 68.3481C131.664 68.2122 131.288 68.1443 130.827 68.1443H129.137V76.7849H127.293ZM132.552 72.1713L135.073 76.7849H133.015L130.539 72.1713H132.552ZM139.642 66.6031V76.7849H137.798V66.6031H139.642ZM138.032 65.5988L139.145 63.3268H140.905L139.379 65.5988H138.032ZM144.347 76.7849H142.379L145.963 66.6031H148.24L151.83 76.7849H149.861L147.141 68.6912H147.062L144.347 76.7849ZM144.412 72.7927H149.781V74.2743H144.412V72.7927ZM160.751 76.7849H158.782L162.367 66.6031H164.644L168.233 76.7849H166.264L163.545 68.6912H163.465L160.751 76.7849ZM160.815 72.7927H166.185V74.2743H160.815V72.7927ZM179.211 70.0385H177.351C177.298 69.7335 177.201 69.4634 177.058 69.2281C176.916 68.9895 176.738 68.7873 176.526 68.6216C176.314 68.4558 176.072 68.3315 175.8 68.2487C175.532 68.1625 175.242 68.1194 174.93 68.1194C174.377 68.1194 173.886 68.2586 173.459 68.537C173.031 68.8121 172.696 69.2165 172.454 69.7501C172.213 70.2804 172.092 70.9284 172.092 71.694C172.092 72.4729 172.213 73.1291 172.454 73.6628C172.7 74.1931 173.034 74.5941 173.459 74.8659C173.886 75.1343 174.375 75.2686 174.925 75.2686C175.23 75.2686 175.515 75.2288 175.78 75.1493C176.049 75.0664 176.289 74.9454 176.501 74.7863C176.717 74.6272 176.897 74.4317 177.043 74.1997C177.192 73.9677 177.295 73.7025 177.351 73.4042L179.211 73.4142C179.141 73.8981 178.99 74.3521 178.758 74.7764C178.53 75.2006 178.23 75.5752 177.859 75.9C177.487 76.2215 177.053 76.4734 176.556 76.6557C176.059 76.8346 175.507 76.9241 174.901 76.9241C174.006 76.9241 173.207 76.717 172.504 76.3027C171.802 75.8884 171.248 75.2901 170.844 74.5079C170.439 73.7257 170.237 72.7878 170.237 71.694C170.237 70.5969 170.441 69.659 170.849 68.8801C171.256 68.0979 171.811 67.4996 172.514 67.0853C173.217 66.671 174.012 66.4639 174.901 66.4639C175.467 66.4639 175.994 66.5434 176.481 66.7025C176.969 66.8616 177.403 67.0953 177.784 67.4035C178.165 67.7084 178.478 68.083 178.724 68.5271C178.972 68.9679 179.135 69.4717 179.211 70.0385ZM188.718 66.6031H190.563V73.2551C190.563 73.9842 190.39 74.6256 190.046 75.1791C189.704 75.7326 189.224 76.1651 188.604 76.4767C187.984 76.7849 187.26 76.939 186.431 76.939C185.599 76.939 184.874 76.7849 184.254 76.4767C183.634 76.1651 183.153 75.7326 182.812 75.1791C182.471 74.6256 182.3 73.9842 182.3 73.2551V66.6031H184.144V73.101C184.144 73.5252 184.237 73.903 184.423 74.2345C184.612 74.5659 184.877 74.8261 185.218 75.015C185.56 75.2006 185.964 75.2934 186.431 75.2934C186.899 75.2934 187.303 75.2006 187.644 75.015C187.989 74.8261 188.254 74.5659 188.44 74.2345C188.625 73.903 188.718 73.5252 188.718 73.101V66.6031ZM185.74 65.5988L186.854 63.3268H188.614L187.088 65.5988H185.74ZM199.501 69.4021C199.455 68.9679 199.259 68.6298 198.914 68.3879C198.573 68.1459 198.129 68.025 197.582 68.025C197.197 68.025 196.868 68.083 196.593 68.199C196.317 68.315 196.107 68.4724 195.961 68.6713C195.815 68.8701 195.741 69.0972 195.737 69.3524C195.737 69.5645 195.785 69.7485 195.882 69.9042C195.981 70.06 196.115 70.1926 196.284 70.302C196.453 70.408 196.641 70.4975 196.846 70.5704C197.052 70.6433 197.259 70.7047 197.468 70.7544L198.422 70.993C198.807 71.0825 199.176 71.2035 199.531 71.3559C199.889 71.5084 200.209 71.7006 200.49 71.9326C200.775 72.1646 201.001 72.4447 201.166 72.7728C201.332 73.101 201.415 73.4854 201.415 73.9262C201.415 74.5228 201.263 75.0482 200.958 75.5022C200.653 75.953 200.212 76.306 199.635 76.5612C199.062 76.8131 198.367 76.939 197.552 76.939C196.76 76.939 196.072 76.8164 195.489 76.5711C194.909 76.3259 194.455 75.9679 194.127 75.4973C193.802 75.0266 193.626 74.4532 193.6 73.7771H195.414C195.441 74.1317 195.55 74.4267 195.742 74.662C195.935 74.8974 196.185 75.073 196.493 75.189C196.805 75.305 197.153 75.363 197.537 75.363C197.938 75.363 198.29 75.3034 198.591 75.1841C198.896 75.0614 199.135 74.8924 199.307 74.677C199.479 74.4582 199.567 74.203 199.571 73.9113C199.567 73.6462 199.489 73.4274 199.337 73.2551C199.184 73.0794 198.971 72.9336 198.696 72.8176C198.424 72.6983 198.106 72.5922 197.741 72.4994L196.583 72.2011C195.744 71.9857 195.081 71.6592 194.594 71.2217C194.11 70.7809 193.868 70.1959 193.868 69.4667C193.868 68.8668 194.031 68.3415 194.355 67.8907C194.683 67.44 195.129 67.0903 195.693 66.8417C196.256 66.5898 196.894 66.4639 197.607 66.4639C198.329 66.4639 198.962 66.5898 199.506 66.8417C200.053 67.0903 200.482 67.4367 200.794 67.8808C201.105 68.3216 201.266 68.8287 201.276 69.4021H199.501ZM204.012 68.1493V66.6031H212.135V68.1493H208.988V76.7849H207.159V68.1493H204.012ZM216.946 66.6031V76.7849H215.102V66.6031H216.946ZM229.059 70.0385H227.199C227.146 69.7335 227.048 69.4634 226.906 69.2281C226.763 68.9895 226.586 68.7873 226.374 68.6216C226.162 68.4558 225.92 68.3315 225.648 68.2487C225.38 68.1625 225.09 68.1194 224.778 68.1194C224.224 68.1194 223.734 68.2586 223.306 68.537C222.879 68.8121 222.544 69.2165 222.302 69.7501C222.06 70.2804 221.939 70.9284 221.939 71.694C221.939 72.4729 222.06 73.1291 222.302 73.6628C222.547 74.1931 222.882 74.5941 223.306 74.8659C223.734 75.1343 224.223 75.2686 224.773 75.2686C225.078 75.2686 225.363 75.2288 225.628 75.1493C225.897 75.0664 226.137 74.9454 226.349 74.7863C226.564 74.6272 226.745 74.4317 226.891 74.1997C227.04 73.9677 227.143 73.7025 227.199 73.4042L229.059 73.4142C228.989 73.8981 228.838 74.3521 228.606 74.7764C228.377 75.2006 228.077 75.5752 227.706 75.9C227.335 76.2215 226.901 76.4734 226.404 76.6557C225.907 76.8346 225.355 76.9241 224.748 76.9241C223.853 76.9241 223.055 76.717 222.352 76.3027C221.649 75.8884 221.096 75.2901 220.691 74.5079C220.287 73.7257 220.085 72.7878 220.085 71.694C220.085 70.5969 220.289 69.659 220.696 68.8801C221.104 68.0979 221.659 67.4996 222.362 67.0853C223.064 66.671 223.86 66.4639 224.748 66.4639C225.315 66.4639 225.842 66.5434 226.329 66.7025C226.816 66.8616 227.251 67.0953 227.632 67.4035C228.013 67.7084 228.326 68.083 228.571 68.5271C228.82 68.9679 228.982 69.4717 229.059 70.0385ZM233.332 76.7849H231.363L234.948 66.6031H237.225L240.814 76.7849H238.846L236.126 68.6912H236.047L233.332 76.7849ZM233.397 72.7927H238.766V74.2743H233.397V72.7927Z" fill="black"/>
<path fill-rule="evenodd" clip-rule="evenodd" d="M214.273 27.8734C215.61 27.8734 216.891 28.2575 217.837 28.9412C218.782 29.6249 219.313 30.5521 219.313 31.519C219.313 32.4859 218.782 33.4131 217.837 34.0968C216.891 34.7805 215.61 35.1646 214.273 35.1646C212.937 35.1646 211.655 34.7805 210.71 34.0968C209.765 33.4131 209.234 32.4859 209.234 31.519C209.234 30.5521 209.765 29.6249 210.71 28.9412C211.655 28.2575 212.937 27.8734 214.273 27.8734ZM214.273 20.8502C216.683 20.8494 219.053 21.2875 221.167 22.124C223.281 22.9605 225.07 24.1686 226.368 25.6369C226.61 25.9215 226.687 26.2633 226.584 26.5889C226.481 26.9145 226.206 27.1979 225.817 27.3783C225.429 27.5587 224.958 27.6217 224.506 27.5537C224.054 27.4858 223.657 27.2923 223.4 27.0149C222.42 25.9066 221.071 24.9946 219.476 24.3631C217.881 23.7317 216.091 23.4012 214.273 23.4021C212.453 23.4012 210.662 23.7322 209.066 24.3647C207.47 24.9971 206.12 25.9105 205.141 27.0204C204.889 27.3053 204.491 27.5062 204.034 27.5786C203.577 27.6511 203.099 27.5893 202.705 27.4068C202.311 27.2243 202.033 26.9361 201.933 26.6055C201.833 26.2749 201.918 25.9291 202.171 25.6442C203.469 24.1738 205.258 22.9638 207.373 22.1259C209.488 21.288 211.861 20.8493 214.273 20.8502ZM214.273 13.6612C221.984 13.6612 229.046 16.1784 233.615 20.4492C233.897 20.717 234.022 21.0547 233.961 21.3887C233.901 21.7226 233.66 22.0258 233.292 22.2319C232.924 22.4381 232.458 22.5306 231.996 22.4893C231.534 22.448 231.113 22.2762 230.825 22.0113C226.92 18.3639 220.887 16.2131 214.271 16.2131C211.096 16.2104 207.962 16.7318 205.107 17.7376C202.253 18.7433 199.753 20.2068 197.799 22.0168C197.658 22.1526 197.481 22.2667 197.279 22.3524C197.076 22.4381 196.852 22.4937 196.619 22.5159C196.386 22.5381 196.15 22.5265 195.924 22.4818C195.697 22.4371 195.485 22.3602 195.301 22.2555C195.116 22.1508 194.962 22.0205 194.848 21.8722C194.733 21.724 194.661 21.5607 194.635 21.392C194.609 21.2232 194.63 21.0525 194.697 20.8896C194.763 20.7268 194.874 20.5752 195.022 20.4437C197.307 18.3286 200.228 16.6183 203.564 15.4429C206.9 14.2676 210.563 13.6582 214.273 13.6612ZM214.273 6C224.113 6 232.524 8.73418 239.015 13.8744C239.33 14.1244 239.496 14.4548 239.475 14.7931C239.454 15.1313 239.248 15.4497 238.903 15.6781C238.557 15.9065 238.1 16.0263 237.633 16.0111C237.165 15.9959 236.725 15.8469 236.409 15.597C230.581 10.9798 223.115 8.5519 214.273 8.5519C205.65 8.5519 198.013 11.0528 192.124 15.6061C191.971 15.7404 191.782 15.8507 191.567 15.93C191.353 16.0093 191.118 16.0561 190.878 16.0673C190.638 16.0786 190.397 16.0542 190.17 15.9955C189.943 15.9369 189.736 15.8453 189.56 15.7264C189.384 15.6074 189.243 15.4637 189.147 15.3041C189.051 15.1444 189.001 14.9722 189 14.798C188.999 14.6238 189.048 14.4514 189.143 14.2913C189.238 14.1312 189.377 13.9868 189.552 13.8671C196.09 8.80344 204.655 6 214.271 6H214.273Z" fill="#65CCFE"/>
</svg>
