<svg width="100" height="75" viewBox="0 0 100 75" fill="none" xmlns="http://www.w3.org/2000/svg">
<path d="M90.625 75H9.375C4.1875 75 0 70.8125 0 65.625V9.375C0 4.1875 4.1875 0 9.375 0H90.625C95.8125 0 100 4.1875 100 9.375V65.625C100 70.8125 95.8125 75 90.625 75ZM9.375 6.25C7.625 6.25 6.25 7.625 6.25 9.375V65.625C6.25 67.375 7.625 68.75 9.375 68.75H90.625C92.375 68.75 93.75 67.375 93.75 65.625V9.375C93.75 7.625 92.375 6.25 90.625 6.25H9.375Z" fill="#0A737B"/>
<path d="M50.0004 49.7499C45.6254 49.7499 41.6254 47.9999 38.6254 44.8124L5.81288 9.93739C4.62538 8.68739 4.68788 6.68739 5.93788 5.49989C7.18788 4.31239 9.18788 4.37489 10.3754 5.62489L43.1879 40.4999C46.7504 44.3124 53.2504 44.3124 56.8129 40.4999L89.6254 5.68739C90.8129 4.43739 92.8129 4.37489 94.0629 5.56239C95.3129 6.74989 95.3754 8.74989 94.1879 9.99989L61.3754 44.8749C58.3754 48.0624 54.3754 49.8124 50.0004 49.8124V49.7499Z" fill="#0A737B"/>
</svg>
